# xmcd
#
# Track frame offsets: 
#        150
#        13300
#        32850
#        46150
#        64087
#        86875
#        105087
#        120687
#        135537
#        152960
#        172762
#        190725
#        210062
#        226050
#        243375
#        259450
#        270600
#        290262
#
# Disc length: 4065 seconds
#
# Revision: 0
# Processed by: cddbd v1.5PL3 Copyright (c) Steve Scherf et al.
# Submitted via: ExactAudioCopy v0.90b4
#
DISCID=ee0fdf12
DTITLE=Norma Murphy - Norma's Best
DYEAR=1991
DGENRE=Country
TTITLE0=Mehi River Blues
TTITLE1=Who's Takin' You Home
TTITLE2=Cane Train
TTITLE3=Warwick Gold Cup
TTITLE4=The Old Brigade
TTITLE5=The Outlaw And The Lady
TTITLE6=The Old School Bus
TTITLE7=I'd Say I Love You
TTITLE8=Sarah's Memory
TTITLE9=Rose's Cafe
TTITLE10=My Dreams never Came True
TTITLE11=Darlin' Billy
TTITLE12=Kakadu Man
TTITLE13=Soldier Green
TTITLE14=The Banks Of The Bogan
TTITLE15=Take A Cutting
TTITLE16=Closer Now To Rain
TTITLE17=Sydney Or The Bush
EXTD=Festival Records 1991\nD30591
EXTT0=
EXTT1=
EXTT2=
EXTT3=
EXTT4=
EXTT5=
EXTT6=
EXTT7=
EXTT8=
EXTT9=
EXTT10=
EXTT11=
EXTT12=
EXTT13=
EXTT14=
EXTT15=
EXTT16=
EXTT17=
PLAYORDER=
